<svg width="47" height="53" viewBox="0 0 47 53" fill="none" xmlns="http://www.w3.org/2000/svg">
<g clip-path="url(#clip0_48_4736)">
<path d="M29.8524 15.2053C30.7739 15.2053 31.6801 14.9493 32.4838 14.4578C33.6358 13.7513 34.4395 12.6403 34.7518 11.3297C35.402 8.62142 33.7228 5.89267 31.0145 5.24247C29.7039 4.93018 28.3472 5.1452 27.1953 5.85171C26.0434 6.55822 25.2396 7.66917 24.9222 8.9798C24.6099 10.2904 24.8249 11.6471 25.5314 12.799C26.2379 13.951 27.3489 14.7547 28.6595 15.0721C29.0588 15.1592 29.453 15.2053 29.8524 15.2053ZM28.4854 7.94051C28.9001 7.68453 29.366 7.55654 29.837 7.55654C30.0418 7.55654 30.2414 7.58214 30.4462 7.62822C31.8388 7.96099 32.6989 9.36377 32.3661 10.7563C32.0333 12.1488 30.6305 13.0089 29.238 12.6762C28.5622 12.5175 27.9939 12.1028 27.6304 11.5089C27.2669 10.9201 27.1594 10.2239 27.3181 9.54808C27.4769 8.87228 27.8915 8.30401 28.4854 7.94051Z" fill="#24584C"/>
<path d="M1.64325 32.0642L5.91813 32.7604C5.06316 41.6327 10.8637 50.0392 19.7769 52.174C21.1951 52.5119 22.6132 52.6758 24.0109 52.6758C31.4036 52.6758 38.1871 48.1244 40.9261 41.1464L45.0474 42.4621C45.1703 42.5031 45.2983 42.5184 45.4211 42.5184C45.7744 42.5184 46.1225 42.3649 46.358 42.0833C46.6806 41.7044 46.7369 41.1669 46.5116 40.7266L42.9637 33.8509C42.6514 33.2468 41.9091 33.0113 41.3101 33.3236L34.4344 36.8715C33.9941 37.0968 33.733 37.5729 33.774 38.0644C33.8149 38.561 34.1528 38.9808 34.6239 39.1293L38.5813 40.3938C36.1905 46.3121 30.4104 50.1723 24.1133 50.2132L31.4702 19.4801C35.1716 18.8402 38.1564 16.0705 39.0472 12.3588C40.2657 7.28009 37.1222 2.15535 32.0384 0.941996C29.581 0.353239 27.0366 0.75769 24.8812 2.07855C22.7259 3.39941 21.2104 5.4831 20.6217 7.94564C19.7309 11.6574 21.1388 15.4817 24.1491 17.7292L16.7973 48.4623C11.2016 45.5697 7.79703 39.5183 8.34483 33.1547L12.4457 33.8202C12.5122 33.8304 12.5788 33.8356 12.6453 33.8356C13.0651 33.8356 13.4645 33.6205 13.6897 33.2519C13.9508 32.827 13.9303 32.2894 13.6436 31.8901L9.12302 25.6135C8.72368 25.0605 7.96086 24.9377 7.40794 25.3319L1.12617 29.8525C0.721716 30.1443 0.53229 30.646 0.650041 31.1324C0.762673 31.6188 1.15688 31.9823 1.64325 32.0642ZM41.3459 36.0677L42.974 39.2163L38.1973 37.6906L41.3459 36.0677ZM26.7448 17.4733C26.8676 16.9562 26.6424 16.4135 26.1918 16.137C23.5859 14.55 22.3112 11.4833 23.0228 8.51392C23.458 6.69133 24.5792 5.15033 26.1765 4.16736C27.7738 3.18951 29.6578 2.88745 31.4804 3.32262C33.303 3.75779 34.844 4.87898 35.827 6.47631C36.8048 8.07363 37.1069 9.95765 36.6717 11.7802C35.9601 14.7496 33.4361 16.905 30.3899 17.1405C29.8575 17.1814 29.4172 17.5603 29.2892 18.0774L21.7326 49.6091L19.1933 48.9999L26.7448 17.4733ZM7.84311 28.0453L9.91144 30.9225L4.96588 30.1136L7.84311 28.0453Z" fill="#24584C"/>
</g>
<defs>
<clipPath id="clip0_48_4736">
<rect width="46.0408" height="52" fill="white" transform="translate(0.614197 0.675781)"/>
</clipPath>
</defs>
</svg>
