<svg width="46" height="46" viewBox="0 0 46 46" fill="none" xmlns="http://www.w3.org/2000/svg">
<path d="M6.47302 45.1227C6.74095 45.4548 7.20983 45.6606 7.72133 45.6606H33.814C34.2951 45.6606 34.7457 45.4782 35.0197 45.1695L41.9189 37.4278C42.2234 37.0863 42.2599 36.6373 42.0042 36.2724C41.7484 35.9028 41.2552 35.6736 40.7132 35.6736H16.8736V33.4517H21.0508H21.1422H43.6483C44.0562 33.4517 44.446 33.3207 44.7261 33.0868C45.0062 32.8576 45.1401 32.5442 45.1097 32.2308C45.0853 31.9922 44.4399 26.3415 41.2734 19.8254C37.084 11.2324 30.4284 5.26823 21.9947 2.53175C21.7511 2.39609 21.4588 2.31657 21.1422 2.31657H16.8797V1.78331C16.8797 1.16584 16.2281 0.660645 15.4182 0.660645C14.6144 0.660645 13.9568 1.16116 13.9568 1.78331V3.43923V32.329V35.6736H1.57113C1.04136 35.6736 0.554217 35.8935 0.298466 36.249C0.0427146 36.6045 0.0488039 37.0349 0.322823 37.381L6.47302 45.1227ZM22.5123 26.9777V22.6367V5.18403C31.7985 8.828 36.7856 16.3966 39.4162 22.6367C40.0738 24.1944 40.5793 25.6679 40.9751 26.9777C41.5109 28.7599 41.8276 30.2428 42.0042 31.2064H22.5184V26.9777H22.5123ZM16.8736 4.56189H19.5894V31.2064H16.8736V4.56189ZM37.9426 37.9143L33.0407 43.4153H8.54339L4.17127 37.9143H37.9426Z" fill="#24584C"/>
</svg>
