<svg width="16" height="17" viewBox="0 0 16 17" fill="none" xmlns="http://www.w3.org/2000/svg">
<path d="M2.31875 16.3315C1.95968 16.3315 1.64179 16.1932 1.36507 15.9165C1.08835 15.6397 0.949997 15.3219 0.949997 14.9628V3.22529C0.949997 2.86623 1.08835 2.54834 1.36507 2.27163C1.64179 1.99491 1.95968 1.85654 2.31875 1.85654H3.2375V0.769043H4.7V1.85654H11.3V0.769043H12.7625V1.85654H13.6812C14.0403 1.85654 14.3582 1.99491 14.6349 2.27163C14.9116 2.54834 15.05 2.86623 15.05 3.22529V14.9628C15.05 15.3219 14.9116 15.6397 14.6349 15.9165C14.3582 16.1932 14.0403 16.3315 13.6812 16.3315H2.31875ZM2.31875 14.9628H13.6812V6.67529H2.31875V14.9628ZM2.31875 5.30654H13.6812V3.22529H2.31875V5.30654ZM7.99638 10.1065C7.77379 10.1065 7.58437 10.0272 7.42812 9.86855C7.27187 9.70989 7.19375 9.51926 7.19375 9.29667C7.19375 9.07409 7.27308 8.88467 7.43174 8.72842C7.5904 8.57217 7.78103 8.49404 8.00362 8.49404C8.2262 8.49404 8.41562 8.57337 8.57187 8.73204C8.72812 8.8907 8.80625 9.08132 8.80625 9.30391C8.80625 9.5265 8.72692 9.71592 8.56825 9.87217C8.40959 10.0284 8.21897 10.1065 7.99638 10.1065ZM4.99638 10.1065C4.77379 10.1065 4.58437 10.0272 4.42812 9.86855C4.27187 9.70989 4.19375 9.51926 4.19375 9.29667C4.19375 9.07409 4.27308 8.88467 4.43174 8.72842C4.5904 8.57217 4.78103 8.49404 5.00362 8.49404C5.2262 8.49404 5.41562 8.57337 5.57187 8.73204C5.72812 8.8907 5.80625 9.08132 5.80625 9.30391C5.80625 9.5265 5.72692 9.71592 5.56825 9.87217C5.40959 10.0284 5.21897 10.1065 4.99638 10.1065ZM10.9964 10.1065C10.7738 10.1065 10.5844 10.0272 10.4281 9.86855C10.2719 9.70989 10.1937 9.51926 10.1937 9.29667C10.1937 9.07409 10.2731 8.88467 10.4317 8.72842C10.5904 8.57217 10.781 8.49404 11.0036 8.49404C11.2262 8.49404 11.4156 8.57337 11.5719 8.73204C11.7281 8.8907 11.8062 9.08132 11.8062 9.30391C11.8062 9.5265 11.7269 9.71592 11.5683 9.87217C11.4096 10.0284 11.219 10.1065 10.9964 10.1065ZM7.99638 13.1065C7.77379 13.1065 7.58437 13.0272 7.42812 12.8685C7.27187 12.7099 7.19375 12.5193 7.19375 12.2967C7.19375 12.0741 7.27308 11.8847 7.43174 11.7284C7.5904 11.5722 7.78103 11.494 8.00362 11.494C8.2262 11.494 8.41562 11.5734 8.57187 11.732C8.72812 11.8907 8.80625 12.0813 8.80625 12.3039C8.80625 12.5265 8.72692 12.7159 8.56825 12.8722C8.40959 13.0284 8.21897 13.1065 7.99638 13.1065ZM4.99638 13.1065C4.77379 13.1065 4.58437 13.0272 4.42812 12.8685C4.27187 12.7099 4.19375 12.5193 4.19375 12.2967C4.19375 12.0741 4.27308 11.8847 4.43174 11.7284C4.5904 11.5722 4.78103 11.494 5.00362 11.494C5.2262 11.494 5.41562 11.5734 5.57187 11.732C5.72812 11.8907 5.80625 12.0813 5.80625 12.3039C5.80625 12.5265 5.72692 12.7159 5.56825 12.8722C5.40959 13.0284 5.21897 13.1065 4.99638 13.1065ZM10.9964 13.1065C10.7738 13.1065 10.5844 13.0272 10.4281 12.8685C10.2719 12.7099 10.1937 12.5193 10.1937 12.2967C10.1937 12.0741 10.2731 11.8847 10.4317 11.7284C10.5904 11.5722 10.781 11.494 11.0036 11.494C11.2262 11.494 11.4156 11.5734 11.5719 11.732C11.7281 11.8907 11.8062 12.0813 11.8062 12.3039C11.8062 12.5265 11.7269 12.7159 11.5683 12.8722C11.4096 13.0284 11.219 13.1065 10.9964 13.1065Z" fill="#24584C"/>
</svg>
