<svg width="53" height="53" viewBox="0 0 53 53" fill="none" xmlns="http://www.w3.org/2000/svg">
<g clip-path="url(#clip0_48_4712)">
<path d="M12.3748 48.6525C13.8783 49.7498 18.5428 52.6758 25.5661 52.6758C26.0442 52.6758 26.533 52.6599 27.0324 52.6334C40.994 52.1987 52.2196 40.7439 52.2196 26.7129C52.2196 16.6044 46.3916 7.83174 37.9126 3.55407C37.8648 3.52226 37.8223 3.49576 37.7692 3.46926C37.7373 3.45335 37.7001 3.44275 37.6683 3.42685C35.1979 2.21299 32.5097 1.38078 29.6728 1.00442C18.8881 -0.691803 12.2526 4.76263 11.8595 5.09658C8.91632 7.05254 6.39282 9.58628 4.45902 12.5388C4.38996 12.6024 4.33152 12.666 4.27839 12.7455C4.20933 12.8409 3.81088 13.4346 3.30618 14.4735C1.32989 18.1204 0.214233 22.2868 0.214233 26.7076C0.214233 35.9414 5.07529 44.0515 12.3748 48.6525ZM26.2142 3.31024C26.9049 3.31024 27.5902 3.34734 28.2649 3.40565C30.4803 3.65478 32.9081 4.22726 35.522 5.2768L30.3793 16.0744C28.6209 15.5284 25.1995 14.9877 21.3851 17.1292L14.4574 6.47476C17.9159 4.46579 21.9323 3.31024 26.2142 3.31024ZM26.2142 18.571C30.7087 18.571 34.3691 22.2232 34.3691 26.7076C34.3691 31.1973 30.7087 34.8442 26.2142 34.8442C24.9658 34.8442 23.7811 34.5526 22.7238 34.0491C22.3945 33.8688 22.0598 33.6621 21.7251 33.4289C21.6348 33.3653 21.5391 33.3229 21.4382 33.2858C19.3981 31.8069 18.0594 29.4109 18.0594 26.7023C18.0594 22.2232 21.7198 18.571 26.2142 18.571ZM46.9654 36.2171L36.4729 30.8792C37.1901 29.1724 37.987 25.9231 36.0213 22.149L45.94 15.258C47.4966 17.8713 50.9764 25.4725 46.9654 36.2171ZM26.2142 50.1102C21.9163 50.1102 17.8893 48.9441 14.4255 46.9245L21.3797 36.2277C21.4169 36.2489 21.4594 36.2648 21.4966 36.286C25.2898 38.3798 28.7271 37.9398 30.4697 37.4733L35.522 48.0801C32.2334 49.4052 29.2477 49.983 26.6127 50.1049C26.4799 50.0996 26.347 50.1102 26.2142 50.1102ZM5.73937 15.3164L15.573 22.149C13.5967 25.9496 14.4149 29.2148 15.1374 30.9163L5.54811 36.18C1.61145 25.7057 4.33152 18.1681 5.70218 15.3853C5.71812 15.3588 5.72874 15.3376 5.73937 15.3164ZM17.3103 32.6285C17.8575 33.4448 18.5162 34.1763 19.26 34.8124L12.2951 45.5251C9.81946 43.6964 7.71566 41.4012 6.12188 38.7614L17.3103 32.6285ZM37.8436 47.0199L32.3397 35.4644C33.3332 34.77 34.1938 33.9166 34.9004 32.9359L46.3172 38.7455C44.2506 42.1698 41.3234 45.0268 37.8436 47.0199ZM34.5763 20.0552C33.9282 19.2442 33.1685 18.5339 32.3131 17.9402L37.817 6.38465C40.6486 8.00137 43.1137 10.18 45.0475 12.7826L34.5763 20.0552ZM12.327 7.86885L19.2866 18.5816C18.6437 19.1276 18.07 19.753 17.5706 20.4368L7.11002 13.1696C8.55506 11.1394 10.3189 9.34775 12.327 7.86885Z" fill="#24584C"/>
</g>
<defs>
<clipPath id="clip0_48_4712">
<rect width="52" height="52" fill="white" transform="translate(0.214233 0.675781)"/>
</clipPath>
</defs>
</svg>
