<svg width="46" height="46" viewBox="0 0 46 46" fill="none" xmlns="http://www.w3.org/2000/svg">
<g clip-path="url(#clip0_37_4197)">
<path d="M2.39196 30.5404C2.39196 29.1487 3.5853 28.0181 5.0544 28.0181C6.52349 28.0181 7.71684 29.1487 7.71684 30.5404C7.71684 30.7161 7.76438 30.8737 7.84045 31.0224C8.20178 33.2699 10.2509 34.9994 12.7184 34.9994C15.2858 34.9994 17.4015 33.1348 17.6392 30.7611C17.6534 30.6891 17.663 30.617 17.663 30.5404C17.663 29.1487 18.8563 28.0181 20.3254 28.0181C21.7945 28.0181 22.9878 29.1487 22.9878 30.5404C22.9878 30.7161 23.0354 30.8737 23.1114 31.0224C23.4728 33.2699 25.5219 34.9994 27.9894 34.9994C30.5568 34.9994 32.6725 33.1348 32.9102 30.7611C32.9244 30.6891 32.934 30.617 32.934 30.5404C32.934 29.1487 34.1273 28.0181 35.5964 28.0181C37.0655 28.0181 38.2588 29.1487 38.2588 30.5404C38.2588 31.135 38.7675 31.6214 39.3999 31.6214C40.0322 31.6214 40.5409 31.1395 40.5409 30.5404C40.5409 27.9596 38.3254 25.8562 35.5964 25.8562C33.029 25.8562 30.9133 27.7209 30.6756 30.0945C30.6614 30.1666 30.6519 30.2386 30.6519 30.3152C30.6519 31.707 29.4585 32.8375 27.9894 32.8375C26.5203 32.8375 25.327 31.707 25.327 30.3152C25.327 30.1441 25.2794 29.9819 25.2034 29.8333C24.842 27.5858 22.7929 25.8562 20.3254 25.8562C17.758 25.8562 15.6424 27.7209 15.4046 30.0945C15.3904 30.1666 15.3809 30.2386 15.3809 30.3152C15.3809 31.707 14.1875 32.8375 12.7184 32.8375C11.2493 32.8375 10.056 31.707 10.056 30.3152C10.056 30.1441 10.0084 29.9819 9.93237 29.8333C9.57104 27.5858 7.52191 25.8562 5.0544 25.8562C2.32539 25.8562 0.109863 27.9596 0.109863 30.5404C0.109863 31.1395 0.61858 31.6214 1.25091 31.6214C1.29845 31.6214 1.346 31.6124 1.38879 31.6079C1.95455 31.5403 2.39196 31.0899 2.39196 30.5404Z" fill="#24584C"/>
<path d="M34.7359 5.34486V9.53363H22.8024V5.34486C22.8024 3.95311 24.1051 2.82259 25.7073 2.82259C27.3095 2.82259 28.6122 3.95311 28.6122 5.34486C28.6122 5.93939 29.121 6.42583 29.7533 6.42583C30.3809 6.42583 30.8943 5.93939 30.8943 5.34486C30.8943 2.76404 28.5647 0.660645 25.7073 0.660645C22.8452 0.660645 20.5203 2.75953 20.5203 5.34486V22.762C20.5203 23.3611 21.029 23.843 21.6614 23.843C22.2889 23.843 22.8024 23.3611 22.8024 22.762V19.0417H34.7359V22.762C34.7359 23.3611 35.2446 23.843 35.8769 23.843C36.5092 23.843 37.0179 23.3611 37.0179 22.762V5.34486C37.0179 3.95311 38.3206 2.82259 39.9229 2.82259C41.5251 2.82259 42.8278 3.95311 42.8278 5.34486C42.8278 5.93939 43.3365 6.42583 43.9688 6.42583C44.6011 6.42583 45.1099 5.93939 45.1099 5.34486C45.1099 2.75953 42.785 0.660645 39.9229 0.660645C37.0655 0.660645 34.7359 2.75953 34.7359 5.34486ZM22.8024 16.8797V11.6911H34.7359V16.8797H22.8024Z" fill="#24584C"/>
<path d="M35.5916 36.522C33.0243 36.522 30.9086 38.3866 30.6709 40.7603C30.6566 40.8324 30.6471 40.9044 30.6471 40.981C30.6471 42.3727 29.4538 43.5033 27.9847 43.5033C26.5156 43.5033 25.3222 42.3727 25.3222 40.981C25.3222 40.8098 25.2747 40.6477 25.1986 40.499C24.8373 38.2515 22.7882 36.522 20.3206 36.522C17.7533 36.522 15.6376 38.3866 15.3999 40.7603C15.3856 40.8324 15.3761 40.9044 15.3761 40.981C15.3761 42.3727 14.1828 43.5033 12.7137 43.5033C11.2446 43.5033 10.0512 42.3727 10.0512 40.981C10.0512 40.8098 10.0037 40.6477 9.92761 40.499C9.56628 38.2515 7.51715 36.522 5.04964 36.522C3.59481 36.522 2.29211 37.121 1.38879 38.0714C0.599562 38.9001 0.109863 39.9991 0.109863 41.2017C0.109863 41.8007 0.61858 42.2827 1.25091 42.2827C1.29845 42.2827 1.346 42.2736 1.38879 42.2691C1.9498 42.2016 2.3872 41.7512 2.3872 41.2017C2.3872 39.8099 3.58054 38.6794 5.04964 38.6794C6.51874 38.6794 7.71208 39.8099 7.71208 41.2017C7.71208 41.3773 7.75963 41.535 7.8357 41.6836C8.19703 43.9311 10.2462 45.6607 12.7137 45.6607C15.281 45.6607 17.3967 43.796 17.6344 41.4224C17.6487 41.3503 17.6582 41.2783 17.6582 41.2017C17.6582 39.8099 18.8515 38.6794 20.3206 38.6794C21.7897 38.6794 22.9831 39.8099 22.9831 41.2017C22.9831 41.3773 23.0306 41.535 23.1067 41.6836C23.468 43.9311 25.5172 45.6607 27.9847 45.6607C30.552 45.6607 32.6677 43.796 32.9054 41.4224C32.9197 41.3503 32.9292 41.2783 32.9292 41.2017C32.9292 39.8099 34.1225 38.6794 35.5916 38.6794C37.0607 38.6794 38.2541 39.8099 38.2541 41.2017C38.2541 41.8007 38.7628 42.2827 39.3951 42.2827C40.0275 42.2827 40.5362 41.8007 40.5362 41.2017C40.5362 40.0667 40.1083 39.0262 39.3951 38.2155C38.4823 37.1796 37.1178 36.522 35.5916 36.522Z" fill="#24584C"/>
</g>
<defs>
<clipPath id="clip0_37_4197">
<rect width="45" height="45" fill="white" transform="translate(0.109863 0.660645)"/>
</clipPath>
</defs>
</svg>
