<svg version="1.2" xmlns="http://www.w3.org/2000/svg" viewBox="0 0 22 18" width="22" height="18">
	<title>mail-white</title>
	<style>
		.s0 { fill: #ffffff } 
	</style>
	<path class="s0" d="m13.9 14.1h-12.6c-0.3 0-0.6-0.3-0.6-0.6v-11.8c0-0.4 0.3-0.7 0.6-0.7h16.2c0.4 0 0.6 0.3 0.6 0.7v7.9c0 0.2 0.2 0.3 0.4 0.3 0.2 0 0.4-0.1 0.4-0.3v-7.9c0-0.8-0.6-1.4-1.4-1.4h-16.2c-0.7 0-1.3 0.6-1.3 1.4v11.8c0 0.7 0.6 1.4 1.3 1.4h12.6c0.2 0 0.4-0.2 0.4-0.4 0-0.2-0.2-0.4-0.4-0.4z"/>
	<path class="s0" d="m17.3 1.9c-0.1-0.1-0.4-0.1-0.5 0l-7 7.9q-0.1 0.2-0.4 0.2-0.2 0-0.4-0.2l-6.9-7.9c-0.2-0.1-0.4-0.1-0.5 0-0.2 0.2-0.2 0.4 0 0.6l4.5 5.1-4.5 5.1c-0.2 0.1-0.2 0.4 0 0.5q0.1 0.1 0.2 0.1 0.2 0 0.3-0.1l4.5-5.1 1.9 2.2c0.2 0.3 0.6 0.5 0.9 0.5 0.4 0 0.7-0.2 1-0.5l1.9-2.2 2.7 3.1q0.1 0.1 0.3 0.1 0.1 0 0.2-0.1c0.2-0.1 0.2-0.4 0.1-0.5l-2.8-3.1 4.5-5.1c0.1-0.2 0.1-0.4 0-0.6z"/>
	<path class="s0" d="m18.5 10.7c-1.9 0-3.5 1.7-3.5 3.8 0 2.1 1.6 3.8 3.5 3.8 1.9 0 3.5-1.7 3.5-3.8 0-2.1-1.6-3.8-3.5-3.8zm0 6.8c-1.5 0-2.8-1.4-2.8-3 0-1.7 1.3-3 2.8-3 1.5 0 2.8 1.3 2.8 3 0 1.6-1.3 3-2.8 3z"/>
	<path class="s0" d="m18.6 12.8c-0.1 0-0.3 0-0.4 0.1l-0.4 0.5c-0.2 0.2-0.2 0.4 0 0.6 0.1 0.1 0.2 0.1 0.3 0.1v1.7c0 0.2 0.2 0.4 0.4 0.4 0.2 0 0.4-0.2 0.4-0.4v-2.6c0-0.2-0.1-0.3-0.3-0.4z"/>
</svg>