<svg width="18" height="22" viewBox="0 0 18 22" fill="none" xmlns="http://www.w3.org/2000/svg">
<path d="M8.70536 0.260742C13.5132 0.260742 17.4107 4.15826 17.4107 8.9661C17.4107 12.6444 14.8263 16.6529 9.72339 21.0356C9.13785 21.5385 8.27284 21.5385 7.68497 21.0336L7.34769 20.7412C2.47065 16.474 0 12.5624 0 8.9661C0 4.15826 3.89752 0.260742 8.70536 0.260742ZM8.70536 1.60003C4.63719 1.60003 1.33929 4.89793 1.33929 8.9661C1.33929 12.0929 3.61464 15.6954 8.22727 19.7313L8.5599 20.0196C8.64355 20.0915 8.76714 20.0915 8.85079 20.0196C13.6865 15.8664 16.0714 12.1673 16.0714 8.9661C16.0714 4.89793 12.7735 1.60003 8.70536 1.60003ZM8.70536 5.61789C10.5545 5.61789 12.0536 7.11693 12.0536 8.9661C12.0536 10.8153 10.5545 12.3143 8.70536 12.3143C6.85619 12.3143 5.35714 10.8153 5.35714 8.9661C5.35714 7.11693 6.85619 5.61789 8.70536 5.61789ZM8.70536 6.95717C7.59586 6.95717 6.69643 7.8566 6.69643 8.9661C6.69643 10.0756 7.59586 10.975 8.70536 10.975C9.81486 10.975 10.7143 10.0756 10.7143 8.9661C10.7143 7.8566 9.81486 6.95717 8.70536 6.95717Z" fill="white"/>
</svg>
