<svg width="38" height="52" viewBox="0 0 38 52" fill="none" xmlns="http://www.w3.org/2000/svg">
<g clip-path="url(#clip0_50_560)">
<path d="M33.9898 0.286214C33.6829 0.043249 33.2845 -0.0539372 32.9023 0.0324505L1.94786 6.92187L1.93171 6.92727C1.85634 6.94347 1.78097 6.97046 1.71099 6.99746C1.68945 7.00286 1.67869 7.01366 1.66254 7.01906C1.60332 7.04605 1.54948 7.07305 1.49565 7.11084C1.47412 7.12704 1.45258 7.14324 1.43105 7.15944C1.38798 7.19183 1.3503 7.22423 1.31262 7.25662C1.29108 7.27822 1.26955 7.29982 1.24802 7.32141C1.21572 7.35921 1.18341 7.3916 1.1565 7.4294C1.13496 7.45639 1.11881 7.48339 1.10266 7.51039C1.08113 7.55898 1.0596 7.59677 1.03806 7.63997C1.02191 7.67236 1.01115 7.69936 1.00038 7.73176C0.98423 7.77495 0.968079 7.82354 0.957313 7.87214C0.946546 7.90453 0.941163 7.93153 0.935779 7.96392C0.925012 8.01791 0.919629 8.07191 0.919629 8.1313C0.919629 8.1529 0.914246 8.17449 0.914246 8.19609V50.7096C0.914246 51.4277 1.49027 52.0055 2.20626 52.0055H36.6276C37.3436 52.0055 37.9196 51.4277 37.9196 50.7096V8.19069C37.9196 7.47259 37.3436 6.89487 36.6276 6.89487H34.4796V1.29587C34.4743 0.901727 34.2966 0.52918 33.9898 0.286214ZM31.8902 6.89487H13.9851L31.8902 2.91024V6.89487ZM35.3356 49.4138H3.49827V9.48651H35.3356V49.4138Z" fill="#24584C"/>
<path d="M9.88293 43.2478H11.2665V40.4618H11.8371C12.9838 40.4618 13.9043 39.5224 13.9043 38.3777C13.9043 37.2223 12.9784 36.2828 11.8263 36.2828H9.88293V43.2478ZM11.2665 37.6812H11.8263C12.2086 37.6812 12.5208 37.9944 12.5208 38.3777C12.5208 38.7557 12.2086 39.0688 11.8263 39.0688H11.2665V37.6812Z" fill="#24584C"/>
<path d="M16.1385 36.2882L13.6298 43.2532H15.1049L15.8101 41.3041H17.9419L18.6471 43.2532H20.1222L17.6135 36.2882H16.1385ZM16.3161 39.9057L16.876 38.3345L17.4413 39.9057H16.3161Z" fill="#24584C"/>
<path d="M25.0641 41.1637C25.0641 39.9867 24.192 39.1984 23.0561 39.1444C22.7062 39.1282 22.3509 39.0796 22.1301 38.8313C22.0279 38.7017 21.9633 38.5451 21.9633 38.3831C21.9633 37.9998 22.2755 37.6866 22.6577 37.6866C23.0776 37.6866 23.4706 37.8162 23.7936 38.0268L24.7895 37.0279C24.2027 36.569 23.4598 36.2936 22.6577 36.2936C21.511 36.2936 20.5797 37.2331 20.5797 38.3885C20.5797 39.3712 21.258 40.1919 22.1624 40.4186C22.5124 40.4996 23.0615 40.4456 23.3899 40.64C23.5837 40.748 23.6644 40.964 23.6644 41.1745C23.6644 41.5579 23.3522 41.871 22.9753 41.871C22.4262 41.871 21.931 41.6605 21.5541 41.3095L20.5743 42.2922C21.1988 42.8915 22.0386 43.2586 22.9753 43.2586C24.1274 43.2478 25.0641 42.3138 25.0641 41.1637Z" fill="#24584C"/>
<path d="M27.5997 37.6812C28.0196 37.6812 28.4126 37.8108 28.7356 38.0214L29.7315 37.0225C29.1447 36.5636 28.4018 36.2882 27.5997 36.2882C26.453 36.2882 25.5217 37.2277 25.5217 38.3831C25.5217 39.3658 26.2 40.1865 27.1044 40.4133C27.4543 40.4942 28.0034 40.4402 28.3318 40.6346C28.5256 40.7426 28.6064 40.9586 28.6064 41.1691C28.6064 41.5525 28.2941 41.8656 27.9173 41.8656C27.3682 41.8656 26.8729 41.6551 26.4961 41.3041L25.5163 42.2868C26.1408 42.8861 26.9806 43.2532 27.9173 43.2532C29.0639 43.2532 29.9953 42.3138 29.9953 41.1691C29.9953 39.9921 29.1232 39.2038 27.9873 39.1498C27.6373 39.1336 27.282 39.085 27.0613 38.8367C26.959 38.7071 26.8944 38.5505 26.8944 38.3885C26.9052 37.9944 27.2174 37.6812 27.5997 37.6812Z" fill="#24584C"/>
<path d="M19.4169 31.5531C24.3642 31.5531 28.391 27.5145 28.391 22.5526C28.391 17.5907 24.3642 13.5521 19.4169 13.5521C14.4696 13.5521 10.4428 17.5907 10.4428 22.5526C10.4374 27.5199 14.4642 31.5531 19.4169 31.5531ZM19.4169 16.1437C22.943 16.1437 25.8124 19.0215 25.8124 22.5526C25.8124 26.0891 22.943 28.9669 19.4169 28.9669C15.8908 28.9669 13.0268 26.0891 13.0268 22.5526C13.0215 19.0161 15.8908 16.1437 19.4169 16.1437Z" fill="#24584C"/>
</g>
<defs>
<clipPath id="clip0_50_560">
<rect width="37" height="52" fill="white" transform="translate(0.914246)"/>
</clipPath>
</defs>
</svg>
