<svg width="20" height="21" viewBox="0 0 20 21" fill="none" xmlns="http://www.w3.org/2000/svg">
<path d="M13.8266 20.2607C13.6818 20.2607 13.5359 20.2469 13.3906 20.2185C13.3866 20.2179 13.3827 20.2173 13.3787 20.2166C13.1684 20.1805 8.1849 19.29 4.43789 15.5499C1.41731 12.535 0.398425 8.66489 0.0979173 7.1172C0.0418702 6.9331 0.00967292 6.74116 0.00231922 6.54615C3.36123e-05 6.52442 -0.000562634 6.5027 0.000530483 6.48108C-0.00483573 5.87313 0.227899 5.30367 0.657891 4.87446L1.93167 3.60302C2.0062 3.52863 2.10736 3.48677 2.2127 3.48677C2.31804 3.48677 2.4192 3.52863 2.49373 3.60302L6.61568 7.71751C6.771 7.87245 6.771 8.1237 6.61568 8.27854L5.3421 9.54998C5.3096 9.58242 5.27691 9.61317 5.24352 9.64273C4.64856 10.17 4.53319 11.0935 4.9758 11.7902C5.40103 12.4595 5.8821 13.0637 6.4055 13.5861C7.0255 14.2049 7.76116 14.7655 8.59183 15.252C9.27126 15.65 10.1448 15.5224 10.7164 14.9419L10.7302 14.928L12.0039 13.6566C12.1593 13.5016 12.4108 13.5016 12.566 13.6566L16.688 17.771C16.8433 17.926 16.8433 18.1772 16.688 18.3321L15.4143 19.6035C14.9878 20.0293 14.417 20.2607 13.8266 20.2607ZM13.4942 19.4311C13.5051 19.4325 13.516 19.4342 13.5269 19.4365C14.0095 19.5364 14.505 19.389 14.8522 19.0426L15.8448 18.0517L12.285 14.4985L11.2809 15.5007C10.4559 16.3387 9.18361 16.5189 8.18957 15.9368C7.30056 15.416 6.51123 14.814 5.84354 14.1474C5.27889 13.5838 4.76105 12.9339 4.30463 12.2154C3.65562 11.1936 3.8326 9.83238 4.71654 9.04886C4.73899 9.02922 4.76006 9.00919 4.78073 8.98855L5.77288 7.99822L2.2128 4.44466L1.22005 5.43549C0.938624 5.71651 0.787972 6.09105 0.795723 6.4906C0.796022 6.49496 0.79622 6.49923 0.79632 6.50359C0.800295 6.64008 0.822753 6.77389 0.863099 6.90116C0.86767 6.91574 0.871447 6.93072 0.874328 6.94579C1.15566 8.40679 2.12088 12.115 5.00005 14.989C8.45649 18.4391 13.1539 19.3677 13.4942 19.4311ZM19.6025 11.2655C19.383 11.2655 19.205 11.0879 19.205 10.8687C19.205 5.45712 14.7942 1.05428 9.37252 1.05428C9.153 1.05428 8.97502 0.876626 8.97502 0.657511C8.97502 0.438395 9.153 0.260742 9.37252 0.260742C15.2326 0.260742 20 5.01948 20 10.8687C20 11.0879 19.822 11.2655 19.6025 11.2655ZM17.136 11.2655C16.9165 11.2655 16.7385 11.0879 16.7385 10.8687C16.7385 6.77945 13.4056 3.45264 9.30892 3.45264C9.0894 3.45264 8.91142 3.27499 8.91142 3.05588C8.91142 2.83676 9.0894 2.65911 9.30892 2.65911C13.844 2.65911 17.5335 6.34191 17.5335 10.8687C17.5335 11.0879 17.3556 11.2655 17.136 11.2655ZM14.6757 11.2655C14.4562 11.2655 14.2782 11.0879 14.2782 10.8687C14.2782 8.13372 12.049 5.90854 9.30892 5.90854C9.0894 5.90854 8.91142 5.73089 8.91142 5.51177C8.91142 5.29266 9.0894 5.115 9.30892 5.115C12.4873 5.115 15.0732 7.69608 15.0732 10.8687C15.0732 11.0879 14.8952 11.2655 14.6757 11.2655Z" fill="white"/>
</svg>
