<svg width="30" height="51" viewBox="0 0 30 51" fill="none" xmlns="http://www.w3.org/2000/svg">
<path d="M28.6992 18.7408C28.9699 17.5753 29.1099 16.3808 29.1099 15.1863C29.1099 6.90211 22.6042 0.160645 14.6099 0.160645C6.6155 0.160645 0.109863 6.90211 0.109863 15.1863C0.109863 16.3808 0.24987 17.5753 0.520549 18.7408C0.9079 21.1782 1.43992 23.1416 2.10262 24.5876C3.52602 27.6875 9.52296 37.9254 12.2764 42.5922C8.55692 43.0758 6.83017 44.7346 6.83017 46.2966C6.83017 48.1585 9.26628 50.1606 14.6099 50.1606C19.9581 50.1606 22.3896 48.1585 22.3896 46.2966C22.3896 44.7346 20.6628 43.0758 16.9386 42.5825C19.6921 37.9206 25.689 27.6826 27.1124 24.5779C27.7798 23.1416 28.3072 21.1733 28.6992 18.7408ZM20.1495 46.2966C20.0001 46.7367 18.124 47.8393 14.6099 47.8393C11.0537 47.8393 9.17761 46.7125 9.06561 46.3111C9.16828 45.9243 10.6944 44.9812 13.5831 44.7878C13.6158 44.8458 13.6438 44.8893 13.6578 44.9087C13.8632 45.252 14.2225 45.46 14.6099 45.46C14.9972 45.46 15.3566 45.252 15.5619 44.9087C15.5759 44.8845 15.5992 44.841 15.6366 44.7878C18.488 44.9764 20.0141 45.9049 20.1495 46.2966ZM4.12338 23.5865C3.55869 22.3533 3.07333 20.5301 2.72332 18.32C2.71865 18.291 2.71398 18.262 2.70465 18.2282C2.47131 17.2319 2.34997 16.2067 2.34997 15.1863C2.34997 8.17883 7.84755 2.48195 14.6099 2.48195C21.3722 2.48195 26.8698 8.17883 26.8698 15.1863C26.8698 16.2067 26.7484 17.2319 26.5151 18.2282C26.5057 18.2572 26.5011 18.2862 26.4964 18.32C26.1464 20.5301 25.661 22.3533 25.0963 23.5865C23.6589 26.7154 17.0926 37.8916 14.6099 42.0893C12.1271 37.8916 5.56545 26.7154 4.12338 23.5865Z" fill="#24584C"/>
<path d="M14.6099 6.68921C10.321 6.68921 6.8302 10.3066 6.8302 14.7509C6.8302 19.1953 10.321 22.8126 14.6099 22.8126C18.8988 22.8126 22.3896 19.1953 22.3896 14.7509C22.3896 10.3066 18.8988 6.68921 14.6099 6.68921ZM9.06564 14.7509C9.06564 11.5833 11.5531 9.00568 14.6099 9.00568C17.6667 9.00568 20.1495 11.5833 20.1495 14.7509C20.1495 17.9185 17.662 20.4913 14.6099 20.4913C11.5531 20.4962 9.06564 17.9185 9.06564 14.7509Z" fill="#24584C"/>
</svg>
