<svg width="29" height="48" viewBox="0 0 29 48" fill="none" xmlns="http://www.w3.org/2000/svg">
<g clip-path="url(#clip0_48_4565)">
<path d="M27.8689 18.4263C28.1302 17.3307 28.2654 16.2079 28.2654 15.085C28.2654 7.29791 21.9841 0.960938 14.2654 0.960938C6.54668 0.960938 0.265381 7.29791 0.265381 15.085C0.265381 16.2079 0.400559 17.3307 0.661905 18.4263C1.0359 20.7174 1.54958 22.563 2.18942 23.9222C3.56374 26.8362 9.35389 36.4598 12.0124 40.8466C8.42116 41.3012 6.75395 42.8604 6.75395 44.3288C6.75395 46.0789 9.10606 47.9609 14.2654 47.9609C19.4292 47.9609 21.7768 46.0789 21.7768 44.3288C21.7768 42.8604 20.1096 41.3012 16.5139 40.8375C19.1724 36.4553 24.9625 26.8316 26.3368 23.9132C26.9812 22.563 27.4904 20.7128 27.8689 18.4263ZM19.6139 44.3288C19.4698 44.7424 17.6584 45.7789 14.2654 45.7789C10.8318 45.7789 9.02045 44.7197 8.91231 44.3424C9.00693 43.9787 10.4849 43.0923 13.2741 42.9104C13.3056 42.965 13.3326 43.0059 13.3462 43.0241C13.5444 43.3469 13.8914 43.5423 14.2654 43.5423C14.6394 43.5423 14.9908 43.3469 15.1846 43.0241C15.1981 43.0014 15.2206 42.9605 15.2522 42.9104C18.0098 43.0877 19.4833 43.9606 19.6139 44.3288ZM4.1405 22.9812C3.59528 21.822 3.12666 20.1082 2.78872 18.0308C2.78421 18.0035 2.7797 17.9762 2.77069 17.9444C2.54089 17.0079 2.42824 16.0442 2.42824 15.085C2.42824 8.49803 7.73625 3.14297 14.2654 3.14297C20.7945 3.14297 26.1025 8.49803 26.1025 15.085C26.1025 16.0442 25.9854 17.0079 25.7601 17.9444C25.7511 17.9717 25.7466 17.9989 25.742 18.0308C25.4041 20.1082 24.9355 21.822 24.3903 22.9812C23.0024 25.9224 16.6625 36.428 14.2654 40.3738C11.8682 36.428 5.53284 25.9224 4.1405 22.9812Z" fill="white"/>
<path d="M14.2654 7.0979C10.1244 7.0979 6.75397 10.4982 6.75397 14.6759C6.75397 18.8536 10.1244 22.2539 14.2654 22.2539C18.4064 22.2539 21.7768 18.8536 21.7768 14.6759C21.7768 10.4982 18.4064 7.0979 14.2654 7.0979ZM8.91232 14.6759C8.91232 11.6983 11.314 9.27538 14.2654 9.27538C17.2168 9.27538 19.614 11.6983 19.614 14.6759C19.614 17.6535 17.2123 20.0719 14.2654 20.0719C11.3185 20.0719 8.91232 17.6535 8.91232 14.6759Z" fill="white"/>
</g>
<defs>
<clipPath id="clip0_48_4565">
<rect width="28" height="47" fill="white" transform="translate(0.265381 0.960938)"/>
</clipPath>
</defs>
</svg>
