<svg width="14" height="17" viewBox="0 0 14 17" fill="none" xmlns="http://www.w3.org/2000/svg">
<path d="M7.00018 8.47532C7.39209 8.47532 7.73067 8.33577 8.01591 8.05667C8.30114 7.77758 8.44376 7.44207 8.44376 7.05015C8.44376 6.65824 8.30059 6.31966 8.01426 6.03442C7.72791 5.74919 7.38877 5.60657 6.99686 5.60657C6.60494 5.60657 6.26998 5.74974 5.99199 6.03607C5.71401 6.32242 5.57501 6.66156 5.57501 7.05347C5.57501 7.44539 5.71456 7.78035 5.99366 8.05834C6.27275 8.33632 6.60826 8.47532 7.00018 8.47532ZM7.00001 14.4003C8.62501 12.9253 9.82501 11.589 10.6 10.3912C11.375 9.19354 11.7625 8.12989 11.7625 7.20032C11.7625 5.76091 11.3027 4.5823 10.3832 3.6645C9.46361 2.74671 8.33565 2.28782 6.9993 2.28782C5.66295 2.28782 4.53836 2.74634 3.62552 3.66337C2.71268 4.58041 2.25626 5.75804 2.25626 7.19627C2.25626 8.12397 2.64986 9.18695 3.43704 10.3852C4.22423 11.5835 5.41189 12.9218 7.00001 14.4003ZM7.00001 16.2003C4.95001 14.4628 3.41876 12.8465 2.40626 11.3515C1.39376 9.85643 0.887512 8.47271 0.887512 7.20032C0.887512 5.28531 1.50143 3.75967 2.72927 2.62342C3.95711 1.48719 5.37898 0.919067 6.99489 0.919067C8.61081 0.919067 10.0375 1.48719 11.275 2.62342C12.5125 3.75967 13.1313 5.28531 13.1313 7.20032C13.1313 8.47271 12.6219 9.85643 11.6031 11.3515C10.5844 12.8465 9.05001 14.4628 7.00001 16.2003Z" fill="#535353"/>
</svg>
