<svg width="15" height="17" viewBox="0 0 15 17" fill="none" xmlns="http://www.w3.org/2000/svg">
<path fill-rule="evenodd" clip-rule="evenodd" d="M7.49109 14.9989C7.37153 15.0825 7.26009 15.1583 7.15827 15.2263C7.04963 15.1577 6.92913 15.0787 6.79847 14.9898C6.18237 14.5699 5.38335 13.9537 4.59644 13.185C2.98237 11.6084 1.62528 9.59589 1.62528 7.44914C1.62528 4.50362 4.13248 2.1158 7.22528 2.1158C10.3181 2.1158 12.8253 4.50362 12.8253 7.44914C12.8253 9.57287 11.4084 11.5796 9.73529 13.173C8.92357 13.9461 8.10672 14.569 7.49109 14.9989ZM14.2253 7.44914C14.2253 12.7825 7.22528 16.7825 7.22528 16.7825C6.87528 16.7825 0.225281 12.7825 0.225281 7.44914C0.225281 3.76724 3.35928 0.782471 7.22528 0.782471C11.0912 0.782471 14.2253 3.76724 14.2253 7.44914ZM8.62528 7.44914C8.62528 8.18549 7.99845 8.78247 7.22528 8.78247C6.45211 8.78247 5.82528 8.18549 5.82528 7.44914C5.82528 6.71276 6.45211 6.1158 7.22528 6.1158C7.99845 6.1158 8.62528 6.71276 8.62528 7.44914ZM10.0253 7.44914C10.0253 8.92194 8.77172 10.1158 7.22528 10.1158C5.67884 10.1158 4.42528 8.92194 4.42528 7.44914C4.42528 5.97638 5.67884 4.78247 7.22528 4.78247C8.77172 4.78247 10.0253 5.97638 10.0253 7.44914Z" fill="#24584C"/>
</svg>
