<svg width="45" height="52" viewBox="0 0 45 52" fill="none" xmlns="http://www.w3.org/2000/svg">
<g clip-path="url(#clip0_48_4557)">
<path d="M27.0554 32.2331L42.655 40.5053C43.1046 40.7441 43.6506 40.6364 43.9855 40.2525C44.3205 39.8686 44.3526 39.2975 44.0681 38.8715L40.4252 33.4597C40.5169 33.3427 40.5995 33.2116 40.6729 33.0711L41.4483 31.5496C41.7328 30.9926 41.7878 30.3559 41.5997 29.7566C41.4162 29.1574 41.0124 28.6705 40.4664 28.3803C39.9205 28.09 39.2965 28.0339 38.7092 28.2258C38.2137 28.385 37.8053 28.708 37.5163 29.1387L35.8921 26.7277L36.5298 25.4778C36.8143 24.9207 36.8694 24.284 36.6813 23.6848C36.4977 23.0855 36.094 22.5987 35.548 22.3084C35.002 22.0182 34.378 21.962 33.7907 22.1539C33.5246 22.2382 33.286 22.374 33.075 22.5425L32.5932 21.8262C36.8143 12.9174 39.5718 2.81943 36.484 1.18092C33.3824 -0.462283 26.3947 7.55709 21.6277 16.2506L20.4256 16.2646C20.4669 15.9322 20.4439 15.5905 20.343 15.2628C20.1595 14.6636 19.7557 14.1767 19.2097 13.8864C18.6637 13.5962 18.0397 13.54 17.4525 13.732C16.8652 13.9192 16.388 14.3312 16.1036 14.8883L15.3741 16.3208L12.5248 16.3489C13.0433 15.216 12.6074 13.8537 11.5109 13.2685C10.9649 12.9782 10.3409 12.9221 9.75362 13.114C9.16634 13.3013 8.68918 13.7132 8.40471 14.2703L7.62932 15.7918C7.52838 15.9884 7.46874 16.1944 7.42745 16.4004L1.35279 16.4613C0.848093 16.4659 0.412222 16.8217 0.292931 17.3226C0.17364 17.8236 0.407634 18.3432 0.857269 18.582L16.4614 26.8541C15.0529 30.3746 14.4931 33.7593 14.0389 36.5261C13.8829 37.4717 13.7361 38.3752 13.5663 39.1898L5.39491 41.8302C4.86728 41.9987 4.54611 42.5464 4.64246 43.1035C4.73881 43.6606 5.23433 44.0492 5.78031 44.0258C5.85831 44.0211 13.5985 43.7074 19.8429 51.5489C20.0585 51.8204 20.3751 51.9656 20.6963 51.9656C20.8752 51.9656 21.0541 51.9234 21.2193 51.8298C21.6873 51.5723 21.9075 51.0152 21.7469 50.5003L19.1684 42.1813C19.4529 41.8583 19.7557 41.5259 20.0723 41.1748C22.0773 38.9464 24.7659 35.9596 27.0554 32.2331ZM10.5978 42.5043L14.8327 41.1373C15.1997 41.0203 15.4796 40.7113 15.5713 40.3274C15.8145 39.2881 16.0072 38.1271 16.2091 36.8959C16.7092 33.8529 17.2781 30.4027 18.8794 26.8026C19.1225 26.2596 18.9023 25.6182 18.3839 25.342L5.7849 18.6615L8.16154 18.6381C8.29919 18.7599 8.44601 18.8722 8.61118 18.9565C8.94152 19.1344 9.30398 19.2233 9.67103 19.2233C9.90503 19.2233 10.139 19.1859 10.3684 19.111C10.6896 19.008 10.9786 18.8301 11.2172 18.6054L15.3282 18.5632C15.5392 18.9799 15.8696 19.3404 16.3054 19.5744C16.6358 19.7523 16.9982 19.8413 17.3653 19.8413C17.5993 19.8413 17.8333 19.8038 18.0627 19.7289C18.65 19.5417 19.1271 19.1297 19.4116 18.5726L19.4391 18.5211L22.2929 18.493C22.6921 18.4883 23.0546 18.2636 23.2473 17.9078C28.4685 8.14695 34.0201 3.30162 35.4516 3.20331C36.0435 4.32219 35.4195 10.9277 30.3359 21.4283C30.1615 21.7935 30.1891 22.2241 30.4139 22.5612L31.7857 24.6023L31.6664 24.8364C31.382 25.3935 31.3269 26.0302 31.515 26.6294C31.6986 27.2286 32.1023 27.7155 32.6483 28.0058C32.9878 28.1837 33.3503 28.2726 33.7082 28.2726C33.8779 28.2726 34.0477 28.2492 34.2128 28.2118L36.3968 31.456C36.3004 31.868 36.305 32.2987 36.4335 32.7107C36.617 33.3099 37.0208 33.7968 37.5668 34.087C37.8099 34.2181 38.0669 34.2977 38.333 34.3304L39.7599 36.4512L27.1563 29.7566C26.6379 29.4804 25.9955 29.6677 25.7019 30.1827C23.4262 34.1291 20.6687 37.1955 18.4527 39.658C17.9709 40.1917 17.5213 40.6973 17.1084 41.1654C16.8514 41.4603 16.7643 41.8723 16.8835 42.2515L18.2646 46.713C15.553 44.3956 12.8231 43.1644 10.5978 42.5043ZM9.18928 16.6157L9.96467 15.0943C10.061 14.907 10.2491 14.7946 10.4464 14.7946C10.529 14.7946 10.6162 14.8134 10.6942 14.8555C10.9603 14.996 11.0612 15.3283 10.9236 15.5999L10.1482 17.1213C10.0794 17.2524 9.96926 17.3507 9.83162 17.3929C9.69397 17.435 9.54715 17.4256 9.41869 17.3554C9.29022 17.2852 9.19387 17.1728 9.15258 17.0324C9.11128 16.8966 9.12505 16.7468 9.18928 16.6157ZM17.6635 15.7075C17.7599 15.5203 17.948 15.4126 18.1453 15.4126C18.2279 15.4126 18.315 15.4313 18.393 15.4735C18.5215 15.5437 18.6179 15.656 18.6591 15.7965C18.705 15.9369 18.6913 16.0867 18.6224 16.2178L17.847 17.7393C17.7782 17.8704 17.6681 17.9687 17.5305 18.0108C17.3928 18.053 17.246 18.0436 17.1175 17.9734C16.8514 17.8329 16.7505 17.5005 16.8881 17.229L17.6635 15.7075ZM34.323 23.8627C34.378 23.8439 34.4331 23.8346 34.4881 23.8346C34.5753 23.8346 34.6579 23.8533 34.7359 23.8954C34.8644 23.961 34.9607 24.078 35.002 24.2185C35.0433 24.3589 35.0341 24.5087 34.9653 24.6398L34.1899 26.1613C34.0523 26.4328 33.7219 26.5358 33.4604 26.3953C33.1943 26.2549 33.0933 25.9225 33.231 25.651L34.0064 24.1295C34.0706 24.0031 34.1853 23.9095 34.323 23.8627ZM38.1494 31.7322L38.9248 30.2107C38.9891 30.0797 39.1038 29.9814 39.2414 29.9392C39.3791 29.8971 39.5259 29.9065 39.6543 29.9767C39.7828 30.0422 39.8792 30.1593 39.9205 30.2997C39.9618 30.4401 39.9526 30.5899 39.8838 30.721L39.1084 32.2425C39.0441 32.3736 38.9294 32.4672 38.7918 32.514C38.6541 32.5562 38.5073 32.5468 38.3789 32.4766C38.2504 32.4064 38.154 32.294 38.1127 32.1536C38.0669 32.0131 38.0806 31.8633 38.1494 31.7322Z" fill="white"/>
</g>
<defs>
<clipPath id="clip0_48_4557">
<rect width="44" height="51" fill="white" transform="translate(0.265381 0.960938)"/>
</clipPath>
</defs>
</svg>
