<svg width="46" height="46" viewBox="0 0 46 46" fill="none" xmlns="http://www.w3.org/2000/svg">
<path d="M27.5087 28.2539L43.4628 35.5529C43.9227 35.7636 44.4811 35.6686 44.8236 35.3298C45.1662 34.9911 45.199 34.4872 44.9081 34.1113L41.1823 29.3362C41.2762 29.2329 41.3607 29.1173 41.4357 28.9933L42.2287 27.6508C42.5197 27.1593 42.576 26.5975 42.3836 26.0688C42.1959 25.5401 41.783 25.1105 41.2246 24.8544C40.6662 24.5983 40.028 24.5487 39.4274 24.718C38.9206 24.8585 38.503 25.1435 38.2074 25.5235L36.5463 23.3962L37.1985 22.2933C37.4894 21.8018 37.5457 21.24 37.3534 20.7113C37.1657 20.1825 36.7527 19.7529 36.1943 19.4968C35.6359 19.2407 34.9978 19.1911 34.3971 19.3605C34.125 19.4349 33.881 19.5546 33.6651 19.7034L33.1724 19.0714C37.4894 11.2106 40.3096 2.30066 37.1516 0.854908C33.9795 -0.594973 26.833 6.48094 21.9576 14.1517L20.7282 14.1641C20.7705 13.8708 20.747 13.5692 20.6438 13.2801C20.4561 12.7514 20.0431 12.3218 19.4847 12.0657C18.9263 11.8096 18.2882 11.76 17.6876 11.9294C17.0869 12.0946 16.5989 12.4581 16.308 12.9496L15.5619 14.2136L12.6479 14.2384C13.1782 13.2388 12.7324 12.0368 11.6109 11.5204C11.0525 11.2643 10.4144 11.2147 9.81373 11.3841C9.2131 11.5493 8.72509 11.9128 8.43417 12.4044L7.64115 13.7469C7.53792 13.9204 7.47692 14.1021 7.43469 14.2839L1.22197 14.3376C0.705804 14.3417 0.260027 14.6556 0.138025 15.0976C0.0160226 15.5396 0.255334 15.9981 0.715188 16.2088L16.674 23.5077C15.2334 26.614 14.661 29.6005 14.1964 32.0418C14.0369 32.8762 13.8867 33.6734 13.7131 34.3922L5.35596 36.7219C4.81634 36.8706 4.48787 37.3539 4.58641 37.8455C4.68495 38.337 5.19173 38.6799 5.75012 38.6592C5.82989 38.6551 13.7459 38.3783 20.1323 45.2973C20.3528 45.5368 20.6766 45.6649 21.0051 45.6649C21.1881 45.6649 21.3711 45.6277 21.54 45.5451C22.0186 45.3179 22.2439 44.8264 22.0796 44.372L19.4425 37.0317C19.7334 36.7467 20.0431 36.4534 20.3669 36.1436C22.4175 34.1774 25.1672 31.542 27.5087 28.2539ZM10.6771 37.3167L15.0082 36.1105C15.3836 36.0073 15.6698 35.7347 15.7637 35.3959C16.0124 34.4789 16.2095 33.4545 16.4159 32.3681C16.9274 29.6832 17.5092 26.6388 19.1469 23.4623C19.3956 22.9831 19.1703 22.4172 18.6401 22.1735L5.75481 16.279L8.18547 16.2583C8.32624 16.3657 8.4764 16.4649 8.64532 16.5392C8.98318 16.6962 9.35387 16.7747 9.72927 16.7747C9.96858 16.7747 10.2079 16.7416 10.4425 16.6755C10.771 16.5847 11.0666 16.4277 11.3106 16.2294L15.515 16.1922C15.7308 16.5599 16.0687 16.8779 16.5145 17.0845C16.8523 17.2414 17.223 17.3199 17.5984 17.3199C17.8377 17.3199 18.077 17.2869 18.3116 17.2208C18.9123 17.0556 19.4003 16.6921 19.6912 16.2005L19.7194 16.1551L22.638 16.1303C23.0463 16.1262 23.417 15.9279 23.614 15.6139C28.954 7.00141 34.6318 2.72612 36.0958 2.63938C36.7011 3.62662 36.0629 9.45505 30.8638 18.7202C30.6855 19.0424 30.7136 19.4225 30.9436 19.7199L32.3466 21.5209L32.2246 21.7274C31.9336 22.219 31.8773 22.7807 32.0697 23.3095C32.2574 23.8382 32.6703 24.2678 33.2287 24.5239C33.576 24.6809 33.9467 24.7593 34.3127 24.7593C34.4863 24.7593 34.6599 24.7387 34.8288 24.7057L37.0624 27.5682C36.9639 27.9317 36.9686 28.3118 37.1 28.6753C37.2877 29.204 37.7006 29.6336 38.259 29.8897C38.5077 30.0054 38.7705 30.0756 39.0426 30.1045L40.5019 31.9757L27.612 26.0688C27.0817 25.8251 26.4248 25.9903 26.1245 26.4447C23.797 29.9269 20.9769 32.6325 18.7105 34.8052C18.2178 35.2761 17.7579 35.7223 17.3356 36.1353C17.0729 36.3956 16.9837 36.7591 17.1057 37.0937L18.5181 41.0302C15.7449 38.9855 12.9529 37.8992 10.6771 37.3167ZM9.23657 14.4739L10.0296 13.1314C10.1281 12.9662 10.3205 12.867 10.5223 12.867C10.6067 12.867 10.6959 12.8835 10.7757 12.9207C11.0478 13.0446 11.1511 13.3379 11.0103 13.5775L10.2173 14.92C10.1469 15.0356 10.0343 15.1224 9.8935 15.1596C9.75273 15.1967 9.60257 15.1885 9.47118 15.1265C9.3398 15.0646 9.24126 14.9654 9.19903 14.8415C9.15679 14.7217 9.17087 14.5895 9.23657 14.4739ZM17.9034 13.6725C18.0019 13.5073 18.1943 13.4123 18.3961 13.4123C18.4806 13.4123 18.5697 13.4288 18.6495 13.466C18.7809 13.5279 18.8794 13.6271 18.9217 13.751C18.9686 13.8749 18.9545 14.0071 18.8841 14.1228L18.0911 15.4652C18.0207 15.5809 17.9081 15.6676 17.7673 15.7048C17.6266 15.742 17.4764 15.7337 17.345 15.6718C17.0729 15.5479 16.9696 15.2546 17.1104 15.015L17.9034 13.6725ZM34.9415 20.8682C34.9978 20.8517 35.0541 20.8434 35.1104 20.8434C35.1995 20.8434 35.284 20.86 35.3638 20.8971C35.4952 20.955 35.5937 21.0582 35.6359 21.1822C35.6782 21.3061 35.6688 21.4383 35.5984 21.5539L34.8054 22.8964C34.6646 23.136 34.3268 23.2269 34.0593 23.1029C33.7871 22.979 33.6839 22.6857 33.8247 22.4461L34.6177 21.1037C34.6834 20.9921 34.8007 20.9095 34.9415 20.8682ZM38.8549 27.8119L39.6479 26.4695C39.7136 26.3538 39.8309 26.2671 39.9717 26.2299C40.1125 26.1927 40.2626 26.201 40.394 26.2629C40.5254 26.3208 40.6239 26.424 40.6662 26.5479C40.7084 26.6719 40.699 26.8041 40.6286 26.9197L39.8356 28.2622C39.7699 28.3779 39.6526 28.4605 39.5119 28.5018C39.3711 28.539 39.2209 28.5307 39.0895 28.4687C38.9581 28.4068 38.8596 28.3076 38.8174 28.1837C38.7705 28.0598 38.7845 27.9276 38.8549 27.8119Z" fill="#24584C"/>
</svg>
