<svg width="251" height="186" viewBox="0 0 251 186" fill="none" xmlns="http://www.w3.org/2000/svg">
<path d="M58.7629 0.367676C26.5447 0.367676 0.427002 26.4927 0.427002 58.7222C0.427002 90.9404 26.5447 117.065 58.7629 117.065C58.7629 117.065 58.4807 138.741 40.8713 169.938C38.9153 176.189 42.4021 182.846 48.657 184.791C53.095 186.187 57.7649 184.83 60.7805 181.671C101.271 137.384 117.121 85.2612 117.121 58.7222C117.121 26.4927 91.0037 0.367676 58.7629 0.367676Z" fill="#A39D9B" fill-opacity="0.15"/>
<path d="M192.069 0.367676C159.85 0.367676 133.733 26.4932 133.733 58.7222C133.733 90.9404 159.85 117.065 192.069 117.065C192.069 117.065 191.786 138.741 174.177 169.938C172.221 176.189 175.708 182.846 181.963 184.791C186.401 186.187 191.071 184.83 194.086 181.671C234.577 137.384 250.427 85.2612 250.427 58.7222C250.427 26.4927 224.309 0.367676 192.069 0.367676Z" fill="#A39D9B" fill-opacity="0.15"/>
</svg>
