<svg width="54" height="53" viewBox="0 0 54 53" fill="none" xmlns="http://www.w3.org/2000/svg">
<g clip-path="url(#clip0_48_4728)">
<path d="M32.7968 0.675781H20.2304C16.1092 0.675781 12.7603 4.0247 12.7603 8.14595V12.033C5.79023 12.6534 0.314209 18.5156 0.314209 25.6439V39.0079C0.314209 46.5477 6.44861 52.6758 13.9821 52.6758H39.6466C42.0459 52.6758 44.2996 52.0554 46.2558 50.9665C46.2874 50.9475 46.3191 50.9349 46.3507 50.9159C50.5036 48.5672 53.3145 44.1104 53.3145 39.0079V25.6439C53.3145 18.313 47.5156 12.3179 40.267 11.9887V8.14595C40.2733 4.0247 36.9181 0.675781 32.7968 0.675781ZM50.2821 39.0079C50.2821 42.015 49.0223 44.7245 47.0091 46.6617V17.9901C49.0223 19.9273 50.2821 22.6368 50.2821 25.6439V39.0079ZM3.35292 25.6439C3.35292 22.5545 4.68236 19.7817 6.79047 17.8382V46.8136C4.68236 44.8701 3.35292 42.0973 3.35292 39.0079V25.6439ZM32.7968 3.7145C35.2404 3.7145 37.2283 5.70232 37.2283 8.14595V11.976H33.9743V9.82991C33.9743 7.39894 31.9928 5.41744 29.5682 5.41744H23.4591C21.0281 5.41744 19.0466 7.39261 19.0466 9.82991V11.976H15.7927V8.14595C15.7927 5.70232 17.7805 3.7145 20.2241 3.7145H32.7968ZM43.9957 15.9517C43.9831 16.0213 43.9767 16.0909 43.9767 16.1669V48.7128C42.7929 49.2446 41.4951 49.5548 40.1277 49.6181V15.0337C41.5014 15.097 42.8056 15.4135 43.9957 15.9517ZM16.7106 49.6371V15.0084H37.089V49.6371H16.7106ZM9.82918 48.7951V16.1606C9.82918 16.0593 9.81652 15.9643 9.79753 15.8694C10.994 15.3566 12.3045 15.0654 13.6719 15.021V49.6181C12.3171 49.5864 11.013 49.2952 9.82918 48.7951ZM30.9419 11.976H22.0853V9.82991C22.0853 9.07656 22.6994 8.45616 23.4591 8.45616H29.5682C30.3215 8.45616 30.9419 9.07023 30.9419 9.82991V11.976Z" fill="#24584C"/>
</g>
<defs>
<clipPath id="clip0_48_4728">
<rect width="53.0066" height="52" fill="white" transform="translate(0.314209 0.675781)"/>
</clipPath>
</defs>
</svg>
