<svg width="23" height="23" viewBox="0 0 23 23" fill="none" xmlns="http://www.w3.org/2000/svg">
<g clip-path="url(#clip0_50_597)">
<path d="M22.4785 9.14351C22.3964 8.89812 22.1838 8.71935 21.9281 8.68L15.138 7.64255L12.0957 1.16173C11.9818 0.919449 11.7382 0.764832 11.4707 0.764832C11.2032 0.764832 10.9599 0.919449 10.8457 1.16173L7.80335 7.64255L1.0133 8.68035C0.757563 8.71935 0.545309 8.89847 0.462824 9.14385C0.380683 9.3889 0.442461 9.65948 0.623308 9.84481L5.55657 14.9034L4.39073 22.0489C4.34793 22.3098 4.45803 22.5724 4.67442 22.7243C4.79315 22.8082 4.93223 22.8506 5.07167 22.8506C5.18625 22.8506 5.30152 22.8216 5.40575 22.7643L11.4703 19.41L17.5349 22.7643C17.6392 22.8216 17.7544 22.8506 17.869 22.8506C18.0084 22.8506 18.1479 22.8082 18.2663 22.7243C18.4827 22.5724 18.5928 22.3098 18.55 22.0489L17.3841 14.9034L22.3174 9.84481C22.4986 9.65913 22.5607 9.38855 22.4785 9.14351Z" fill="#F7C104"/>
</g>
<defs>
<clipPath id="clip0_50_597">
<rect width="22.0882" height="22.0882" fill="white" transform="translate(0.427307 0.764832)"/>
</clipPath>
</defs>
</svg>
