<svg width="52" height="53" viewBox="0 0 52 53" fill="none" xmlns="http://www.w3.org/2000/svg">
<path d="M51.7305 51.991C51.9774 51.5665 51.9717 51.0459 51.719 50.627L29.7708 14.0267L28.0135 10.9875L32.7971 2.70759C33.1704 2.05674 32.9407 1.22478 32.2803 0.856913C31.6199 0.483383 30.7757 0.709765 30.4025 1.36627L26.4286 8.24263L23.0921 2.46989C22.7131 1.81904 21.8747 1.587 21.2143 1.96053C20.5539 2.33406 20.3242 3.16035 20.6975 3.8112L24.8436 10.9875L23.8502 12.708L1.10373 50.627C0.85106 51.0459 0.845317 51.5665 1.09225 51.991C1.33918 52.4155 1.79285 52.6758 2.29245 52.6758H50.536C51.0299 52.6758 51.4835 52.4155 51.7305 51.991ZM17.1543 49.9422L26.4114 34.5086L35.6684 49.9422H17.1543ZM15.5751 31.8373L18.6129 26.772L25.0331 16.0641V26.772V31.4638L24.8092 31.8373L13.9442 49.9592H4.70434L15.5751 31.8373ZM38.8785 49.9592L28.0135 31.8373L27.7896 31.4638V26.772V16.0641L34.2098 26.772L37.2476 31.8373L48.1184 49.9592H38.8785Z" fill="#24584C"/>
</svg>
