<svg width="46" height="46" viewBox="0 0 46 46" fill="none" xmlns="http://www.w3.org/2000/svg">
<path d="M20.6332 0.660645C20.1037 0.660645 19.6777 1.17435 19.6777 1.81289V44.5084C19.6777 45.1421 20.1037 45.6606 20.6332 45.6606H24.5746C25.1001 45.6606 25.5301 45.1469 25.5301 44.5084V1.81289C25.5301 1.17435 25.1041 0.660645 24.5746 0.660645H20.6332ZM23.6191 43.3562H21.5887V2.96514H23.6191V43.3562Z" fill="#24584C"/>
<path d="M41.4431 26.7109L44.7874 23.1389C44.9904 22.9229 45.1099 22.606 45.1099 22.2747C45.1099 21.9435 44.9944 21.6314 44.7874 21.4106L41.4431 17.8386C41.268 17.6514 41.045 17.5505 40.8101 17.5505H27.4411C26.9116 17.5505 26.4856 18.0642 26.4856 18.7028V25.8419C26.4856 26.4756 26.9116 26.9942 27.4411 26.9942H40.8141C41.045 26.999 41.2719 26.8981 41.4431 26.7109ZM28.3926 19.8598H40.4478L42.7131 22.2795L40.4478 24.6993H28.3926V19.8598Z" fill="#24584C"/>
<path d="M27.4411 5.8842C26.9116 5.8842 26.4856 6.39791 26.4856 7.03644V14.1756C26.4856 14.8141 26.9116 15.3278 27.4411 15.3278H40.8141C41.049 15.3278 41.2719 15.227 41.4471 15.0397L44.7914 11.4678C44.9944 11.2517 45.1138 10.9349 45.1138 10.6036C45.1138 10.2723 44.9984 9.96027 44.7914 9.73942L41.4471 6.16746C41.2719 5.98022 41.049 5.87939 40.8141 5.87939H27.4411V5.8842ZM28.3926 13.0233V8.18389H40.4478L42.7131 10.6036L40.4478 13.0233H28.3926Z" fill="#24584C"/>
<path d="M3.77659 15.0398C3.95176 15.2271 4.17471 15.3279 4.40961 15.3279H17.7826C18.3121 15.3279 18.7381 14.8142 18.7381 14.1756V7.03652C18.7381 6.39799 18.3121 5.88428 17.7826 5.88428H4.40961C4.17471 5.88428 3.95176 5.9851 3.77659 6.17234L0.432344 9.7443C0.225319 9.96035 0.109863 10.2772 0.109863 10.6037C0.109863 10.935 0.225319 11.247 0.432344 11.4679L3.77659 15.0398ZM16.8231 8.18397V13.0234H4.7719L2.50657 10.6037L4.7719 8.18397H16.8231Z" fill="#24584C"/>
</svg>
