<svg width="46" height="46" viewBox="0 0 46 46" fill="none" xmlns="http://www.w3.org/2000/svg">
<g clip-path="url(#clip0_37_4188)">
<path d="M44.9478 45.0682C45.1657 44.7009 45.1606 44.2503 44.9377 43.8879L25.5716 12.2145L24.0211 9.58444L28.2419 2.41912C28.5713 1.85588 28.3686 1.13592 27.7859 0.817571C27.2032 0.494323 26.4583 0.690231 26.129 1.25836L22.6226 7.20906L19.6787 2.21341C19.3443 1.65018 18.6045 1.44937 18.0218 1.77262C17.4391 2.09587 17.2364 2.81093 17.5657 3.37417L21.2241 9.58444L20.3475 11.0733L0.277142 43.8879C0.0592609 44.2503 0.0541939 44.7009 0.272075 45.0682C0.489956 45.4356 0.890249 45.6608 1.32601 45.6608H43.8939C44.3296 45.6608 44.7299 45.4356 44.9478 45.0682ZM14.4394 43.2953L22.6074 29.9393L30.7754 43.2953H14.4394ZM13.046 27.6275L15.7264 23.2441L21.3913 13.9777V23.2441V27.3043L21.1937 27.6275L11.6069 43.31H3.45415L13.046 27.6275ZM33.6078 43.31L24.0211 27.6275L23.8235 27.3043V23.2441V13.9777L29.4884 23.2441L32.1688 27.6275L41.7606 43.31H33.6078Z" fill="#24584C"/>
</g>
<defs>
<clipPath id="clip0_37_4188">
<rect width="45" height="45" fill="white" transform="translate(0.109863 0.660645)"/>
</clipPath>
</defs>
</svg>
