<svg width="14" height="14" viewBox="0 0 14 14" fill="none" xmlns="http://www.w3.org/2000/svg">
<path d="M7 6.41909C6.10673 6.41909 5.38028 6.13929 4.82067 5.57967C4.26106 5.02007 3.98125 4.29363 3.98125 3.40034C3.98125 2.50705 4.26106 1.78061 4.82067 1.22101C5.38028 0.661398 6.10673 0.381592 7 0.381592C7.89329 0.381592 8.61973 0.661398 9.17933 1.22101C9.73894 1.78061 10.0188 2.50705 10.0188 3.40034C10.0188 4.29363 9.73894 5.02007 9.17933 5.57967C8.61973 6.13929 7.89329 6.41909 7 6.41909ZM0.71875 13.1128V11.0691C0.71875 10.5566 0.844337 10.1167 1.09551 9.74956C1.34669 9.38237 1.6711 9.10347 2.06875 8.91284C2.93125 8.51284 3.76534 8.21597 4.57101 8.02222C5.37669 7.82847 6.18606 7.73159 6.99914 7.73159C7.81221 7.73159 8.61875 7.83159 9.41875 8.03159C10.2188 8.23159 11.0495 8.52655 11.911 8.91648C12.3249 9.10868 12.6568 9.38737 12.9066 9.75256C13.1564 10.1177 13.2813 10.5566 13.2813 11.0691V13.1128H0.71875ZM2.0875 11.7441H11.9125V11.0691C11.9125 10.8691 11.8605 10.6836 11.7564 10.5127C11.6523 10.3418 11.5231 10.221 11.3688 10.1503C10.5563 9.76284 9.80625 9.49097 9.11875 9.33472C8.43125 9.17847 7.725 9.10034 7 9.10034C6.275 9.10034 5.56563 9.17847 4.87188 9.33472C4.17813 9.49097 3.43125 9.76284 2.63125 10.1503C2.46875 10.2253 2.3375 10.346 2.2375 10.5124C2.1375 10.6788 2.0875 10.8644 2.0875 11.0691V11.7441ZM7 5.05034C7.475 5.05034 7.86875 4.89409 8.18125 4.58159C8.49375 4.26909 8.65 3.87534 8.65 3.40034C8.65 2.92534 8.49375 2.53159 8.18125 2.21909C7.86875 1.90659 7.475 1.75034 7 1.75034C6.525 1.75034 6.13125 1.90659 5.81875 2.21909C5.50625 2.53159 5.35 2.92534 5.35 3.40034C5.35 3.87534 5.50625 4.26909 5.81875 4.58159C6.13125 4.89409 6.525 5.05034 7 5.05034Z" fill="#24584C"/>
</svg>
